<svg id="Hogar_Logo" data-name="Hogar Logo" xmlns="http://www.w3.org/2000/svg" xmlns:xlink="http://www.w3.org/1999/xlink" width="261" height="89.026" viewBox="0 0 261 89.026">
  <defs>
    <clipPath id="clip-path">
      <rect id="Rectangle_1" data-name="Rectangle 1" width="261" height="89.026" fill="#fff"/>
    </clipPath>
  </defs>
  <path id="Path_1" data-name="Path 1" d="M103.811,82.589V93.661h7.548V92.217h-5.673V82.589Z" transform="translate(-6.042 -4.807)" fill="#fff"/>
  <path id="Path_2" data-name="Path 2" d="M112.963,85.492l-.171,1.426h1.238v6.723H115.9V85.492Zm.912-1.7h2.047V82.242h-2.047Z" transform="translate(-6.565 -4.787)" fill="#fff"/>
  <path id="Path_3" data-name="Path 3" d="M124.657,85.693,122.37,92.02l-2.286-6.327h-1.943l3.214,8.149h2.029l3.2-8.149Z" transform="translate(-6.876 -4.988)" fill="#fff"/>
  <g id="Group_2" data-name="Group 2">
    <g id="Group_1" data-name="Group 1" clip-path="url(#clip-path)">
      <path id="Path_4" data-name="Path 4" d="M132.615,94a4.776,4.776,0,0,1-3.3-1.048,4.106,4.106,0,0,1-1.17-3.215,4.523,4.523,0,0,1,1-3.095,3.819,3.819,0,0,1,3.026-1.135,3.714,3.714,0,0,1,2.794.971,3.458,3.458,0,0,1,.937,2.5V90.5h-5.966a2.064,2.064,0,0,0,.86,1.633,4.262,4.262,0,0,0,2.2.447,7.024,7.024,0,0,0,1.272-.121,6.161,6.161,0,0,0,1.135-.309v1.375a5.346,5.346,0,0,1-1.264.361,9.161,9.161,0,0,1-1.521.121m-2.682-4.728h4.315v-.567a1.8,1.8,0,0,0-.464-1.316,2.134,2.134,0,0,0-1.564-.473,2.3,2.3,0,0,0-1.8.567,2.7,2.7,0,0,0-.49,1.788" transform="translate(-7.458 -4.977)" fill="#fff"/>
      <path id="Path_5" data-name="Path 5" d="M146.493,93.863a2.533,2.533,0,0,1-1.951-.7,2.691,2.691,0,0,1-.645-1.9V87h-1.2V85.541h1.2V83.668l1.857-.568v2.441h2.166L147.8,87h-2.046v4.161a1.256,1.256,0,0,0,.327.989,1.618,1.618,0,0,0,1.066.283,3.093,3.093,0,0,0,.979-.172v1.324a4.322,4.322,0,0,1-1.633.275" transform="translate(-8.305 -4.837)" fill="#fff"/>
      <path id="Path_6" data-name="Path 6" d="M150.434,93.629V82.041h1.874v4.23a4.369,4.369,0,0,1,1.272-.7,4.905,4.905,0,0,1,1.667-.267,2.643,2.643,0,0,1,3.026,3.044v5.278h-1.856V88.437a1.768,1.768,0,0,0-.4-1.324,2.045,2.045,0,0,0-1.4-.378,3.23,3.23,0,0,0-1.255.267,3.073,3.073,0,0,0-1.048.7v5.931Z" transform="translate(-8.756 -4.775)" fill="#fff"/>
      <path id="Path_7" data-name="Path 7" d="M165.365,94a4.776,4.776,0,0,1-3.3-1.048,4.106,4.106,0,0,1-1.17-3.215,4.523,4.523,0,0,1,1-3.095,3.819,3.819,0,0,1,3.026-1.135,3.714,3.714,0,0,1,2.794.971,3.458,3.458,0,0,1,.937,2.5V90.5h-5.966a2.064,2.064,0,0,0,.86,1.633,4.262,4.262,0,0,0,2.2.447,7.024,7.024,0,0,0,1.272-.121,6.161,6.161,0,0,0,1.135-.309v1.375a5.36,5.36,0,0,1-1.264.361,9.161,9.161,0,0,1-1.521.121m-2.682-4.728H167v-.567a1.8,1.8,0,0,0-.464-1.316,2.134,2.134,0,0,0-1.564-.473,2.3,2.3,0,0,0-1.8.567,2.7,2.7,0,0,0-.49,1.788" transform="translate(-9.365 -4.977)" fill="#fff"/>
      <path id="Path_8" data-name="Path 8" d="M176.63,93.612V86.924h-1.187V85.463h1.187v-1a2.813,2.813,0,0,1,.679-1.968,2.591,2.591,0,0,1,2.02-.748,4.95,4.95,0,0,1,.912.077,4.093,4.093,0,0,1,.756.215v1.341a3.219,3.219,0,0,0-1.083-.189,1.633,1.633,0,0,0-1.118.293,1.331,1.331,0,0,0-.309,1v.98h2.131l-.086,1.462h-2.046v6.688Z" transform="translate(-10.211 -4.758)" fill="#fff"/>
      <path id="Path_9" data-name="Path 9" d="M186.136,94.014a2.978,2.978,0,0,1-2.243-.808,3.28,3.28,0,0,1-.783-2.372V85.692h1.874v5.141a1.784,1.784,0,0,0,.447,1.341,1.921,1.921,0,0,0,1.375.429,3.11,3.11,0,0,0,1.272-.258,3.306,3.306,0,0,0,1.014-.688V85.692h1.857v8.149h-1.7L189.162,93a5.106,5.106,0,0,1-1.306.722,4.768,4.768,0,0,1-1.72.292" transform="translate(-10.658 -4.988)" fill="#fff"/>
      <path id="Path_10" data-name="Path 10" d="M197.279,93.863a2.533,2.533,0,0,1-1.951-.7,2.691,2.691,0,0,1-.645-1.9V87h-1.2V85.541h1.2V83.668l1.857-.568v2.441h2.166L198.585,87H196.54v4.161a1.256,1.256,0,0,0,.327.989,1.618,1.618,0,0,0,1.066.283,3.093,3.093,0,0,0,.979-.172v1.324a4.318,4.318,0,0,1-1.633.275" transform="translate(-11.261 -4.837)" fill="#fff"/>
      <path id="Path_11" data-name="Path 11" d="M204.154,94.014a2.978,2.978,0,0,1-2.243-.808,3.28,3.28,0,0,1-.783-2.372V85.692H203v5.141a1.784,1.784,0,0,0,.447,1.341,1.92,1.92,0,0,0,1.375.429,3.11,3.11,0,0,0,1.272-.258,3.306,3.306,0,0,0,1.014-.688V85.692h1.857v8.149h-1.7L207.18,93a5.106,5.106,0,0,1-1.306.722,4.768,4.768,0,0,1-1.72.292" transform="translate(-11.706 -4.988)" fill="#fff"/>
      <path id="Path_12" data-name="Path 12" d="M212.227,93.831V85.681h1.72l.1.946a7.5,7.5,0,0,1,1.393-.688,7.765,7.765,0,0,1,1.6-.43v1.428a10.127,10.127,0,0,0-1.041.249q-.558.164-1.058.362a5.8,5.8,0,0,0-.842.4v5.88Z" transform="translate(-12.352 -4.977)" fill="#fff"/>
      <path id="Path_13" data-name="Path 13" d="M222.978,94a4.776,4.776,0,0,1-3.3-1.048,4.106,4.106,0,0,1-1.17-3.215,4.523,4.523,0,0,1,1-3.095,3.819,3.819,0,0,1,3.026-1.135,3.714,3.714,0,0,1,2.794.971,3.458,3.458,0,0,1,.937,2.5V90.5H220.3a2.064,2.064,0,0,0,.86,1.633,4.262,4.262,0,0,0,2.2.447,7.024,7.024,0,0,0,1.272-.121,6.161,6.161,0,0,0,1.135-.309v1.375a5.359,5.359,0,0,1-1.264.361,9.161,9.161,0,0,1-1.521.121M220.3,89.275h4.315v-.567a1.8,1.8,0,0,0-.464-1.316,2.134,2.134,0,0,0-1.564-.473,2.3,2.3,0,0,0-1.8.567,2.7,2.7,0,0,0-.49,1.788" transform="translate(-12.718 -4.977)" fill="#fff"/>
      <path id="Path_14" data-name="Path 14" d="M137.912,56.445c0-7.8,6.132-13.528,14.457-13.528s14.457,5.723,14.457,13.528-6.132,13.529-14.457,13.529-14.457-5.724-14.457-13.529m21.48,0c0-4.5-3.084-7.433-7.024-7.433s-7.027,2.937-7.027,7.433,3.086,7.433,7.027,7.433,7.024-2.935,7.024-7.433" transform="translate(-8.027 -2.498)" fill="#fff"/>
      <path id="Path_15" data-name="Path 15" d="M232.288,64.432h-11l-2.043,5.054h-7.507l11.486-26.014h7.243l11.522,26.014h-7.654ZM230.132,59l-3.345-8.325L223.444,59Z" transform="translate(-12.324 -2.53)" fill="#fff"/>
      <path id="Path_16" data-name="Path 16" d="M263.05,62.574h-4.015v6.91h-7.357V43.469H263.57c7.1,0,11.557,3.679,11.557,9.624a8.631,8.631,0,0,1-5.09,8.213l5.612,8.178h-7.88Zm.073-13.307h-4.088v7.619h4.088c3.047,0,4.572-1.415,4.572-3.794,0-2.414-1.526-3.826-4.572-3.826" transform="translate(-14.649 -2.53)" fill="#fff"/>
      <path id="Path_17" data-name="Path 17" d="M121.2,43.47v9.775H111.171V43.47h-.056l-7.3,7.3V69.485h7.36V59.339H121.2V69.485h7.357V43.47Z" transform="translate(-6.042 -2.53)" fill="#fff"/>
      <path id="Path_18" data-name="Path 18" d="M195.293,55.887h-5.315v4.568h5.243v2.567a9.345,9.345,0,0,1-3.978.856,7.043,7.043,0,0,1-7.358-7.433,7,7,0,0,1,7.433-7.433,8.115,8.115,0,0,1,6.319,2.9l4.682-4.237c-2.564-3.083-6.5-4.756-11.369-4.756-8.438,0-14.5,5.612-14.5,13.528s6.057,13.529,14.345,13.529a19.406,19.406,0,0,0,10.925-3.309V55.887Z" transform="translate(-10.27 -2.498)" fill="#fff"/>
      <path id="Path_19" data-name="Path 19" d="M40.744,40.9l-1.06-1.064L0,0V86.9L39.684,47.061,79.369,86.9v-46ZM5.094,74.57V46H33.551Zm0-33.668V12.333L33.551,40.9ZM74.275,74.57,45.818,46H74.275Z" fill="#fff"/>
    </g>
  </g>
</svg>
